<svg width="1465" height="133" viewBox="0 0 1465 133" fill="none" xmlns="http://www.w3.org/2000/svg">
<path d="M111.492 30.3225C111.122 30.23 110.752 30.1375 110.475 30.0451C112.323 26.1617 114.727 27.9186 117.684 27.3638C122.952 26.4392 125.448 20.3367 130.254 19.4121C131.271 20.8915 133.304 23.4804 135.245 22.001C135.245 14.3268 132.38 8.13187 130.162 0.919922C132.38 2.02945 136.909 10.0736 137.74 10.9982C137.74 10.9982 143.471 18.1176 145.227 18.9498C147.26 19.8744 150.68 19.9669 152.713 20.6141C154.562 21.2613 158.721 24.4975 160.477 23.4804C161.032 20.3367 159.923 17.1006 160.477 14.1419C161.217 10.2585 163.065 10.5359 166.947 11.2756C174.341 12.5701 175.265 17.9327 179.332 23.1105C180.995 21.8161 180.718 19.8745 182.752 19.0423C185.339 18.0253 190.515 19.1348 193.38 19.1348C197.078 19.1348 199.943 19.2273 203.455 19.9669C206.412 20.6142 207.799 19.4122 210.664 19.0423C215.655 18.3951 220.923 19.782 225.914 18.7649C228.04 18.3026 231.367 16.2685 233.585 17.7479C236.173 19.4122 234.14 22.4634 237.375 23.7578C239.223 24.4975 241.811 23.4804 243.752 23.7578C247.264 24.2201 247.449 26.4392 250.037 28.4733C251.886 29.9527 255.675 31.8019 257.801 32.4492C261.498 33.5587 261.405 31.9868 263.809 30.1376C270.001 25.2372 275.084 32.634 281 34.6681C285.528 36.24 287.007 36.8873 290.519 40.3083C293.754 43.452 294.956 44.5615 295.418 49.1845C298.283 49.9242 299.577 46.2258 301.518 45.1162C304.198 43.5444 306.509 43.8218 309.097 41.6952C312.886 38.644 314.92 38.644 319.264 37.7194C321.482 37.2571 322.961 36.1475 325.179 36.3325C327.305 36.5174 329.338 37.7194 331.556 38.0892C333.682 38.4591 335.531 37.9968 337.656 38.9214C339.228 39.6611 339.69 40.7706 341.446 41.3254C346.437 42.7123 351.797 39.4762 356.696 42.6198C358.822 44.0068 359.931 46.6881 362.519 47.4278C364.922 48.075 366.123 46.688 368.249 46.2257C373.702 45.1162 376.937 46.7805 381.558 49.4619C388.675 53.5301 397.086 59.0778 403.001 64.9029C407.068 68.8787 407.622 69.7108 413.168 69.7108C414.277 69.7108 416.125 70.1731 417.235 69.8032C419.175 69.156 418.529 67.7692 420.285 66.7521C422.595 65.3652 428.233 66.4747 430.729 66.4747C441.358 66.3822 451.062 70.6354 461.321 71.0053C468.808 71.2826 475 76.9228 481.1 80.9911C486.461 84.5046 492.469 89.5899 498.476 90.2372C501.526 90.5145 504.576 91.1617 507.719 91.4391C509.752 91.624 517.978 92.9185 520.751 91.6241C525.557 89.3126 522.137 83.8573 523.524 79.9739C524.54 81.6382 525.927 84.782 528.145 84.782C530.456 82.7478 528.699 80.2514 529.901 77.8474C530.825 76.0906 532.951 74.8886 534.06 73.2243C534.245 72.4847 534.522 71.7449 534.707 71.0977C535.446 69.8957 536.463 69.4335 537.942 69.8958C540.9 68.2315 541.454 66.7521 542.748 63.4235C548.479 63.6084 554.856 66.1048 560.586 65.0878C564.191 64.4405 565.762 62.0365 569.551 61.8516C574.358 61.5742 578.239 63.1461 582.768 63.516C586.558 63.7933 590.624 63.4235 594.506 63.4235C601.438 63.4235 604.303 62.4989 609.572 67.2144C612.067 69.5259 615.394 70.8204 618.814 71.3751C620.478 71.6525 622.419 71.1901 624.175 71.1901C627.317 71.2826 629.258 72.4846 632.123 73.5017C636.56 74.981 640.719 74.0565 645.248 74.3338C652.087 74.7961 655.599 78.8644 661.33 82.1006C668.631 86.1688 674.547 90.2371 680.832 95.8772C684.436 99.1134 687.024 102.812 690.629 105.956C691.183 107.897 692.477 109.099 694.418 109.469C698.947 111.688 703.661 113.445 708.559 114.739C717.894 117.883 728.246 122.783 738.043 123.893C739.152 123.985 739.984 123.615 741.463 123.8C748.949 124.54 757.914 129.995 765.308 132.492C775.383 136.005 767.989 134.156 774.643 139.704C780.743 144.789 791.003 144.789 798.212 147.193C802.648 148.672 807.269 150.429 811.428 152.556C817.344 155.514 813.924 154.312 818.545 153.85C825.015 153.295 831.577 155.884 837.77 157.271C840.912 158.011 844.147 158.381 846.735 160.507C839.618 156.994 833.056 152.648 827.048 147.285C822.15 141.275 816.327 139.149 809.58 140.628C813.462 142.478 817.436 144.327 821.318 146.268C838.971 151.724 856.717 157.086 874.463 162.357C884.814 164.761 877.975 163.096 882.873 163.096C886.385 163.004 890.082 163.651 893.502 162.819C899.602 161.34 905.61 157.826 912.08 156.994C922.524 155.607 932.968 165.5 942.857 167.719C958.107 171.233 975.206 169.476 990.826 169.384C997.018 169.384 1003.3 168.736 1009.22 170.955C1012.73 172.25 1017.26 174.561 1019.76 170.771C1021.05 168.829 1021.05 166.887 1022.62 164.945C1025.3 161.432 1026.13 161.247 1030.38 161.432C1037.32 161.617 1044.16 160.97 1050.99 161.802C1054.88 162.264 1059.04 164.945 1062.92 164.483C1067.08 164.021 1071.05 161.432 1075.21 163.928C1077.24 165.13 1077.8 167.257 1079.18 169.014C1081.96 172.712 1085.19 175.671 1089.26 177.89C1094.25 180.571 1098.96 182.975 1104.42 184.825C1113.38 187.968 1120.68 191.112 1130.02 189.54C1133.62 188.708 1137.23 187.783 1140.74 186.951C1144.16 186.211 1147.02 184.64 1149.34 182.236C1151.18 181.866 1152.02 182.143 1153.68 183.068C1156.17 184.547 1156.91 186.766 1158.3 189.17C1160.43 193.054 1165.69 198.879 1169.95 200.543C1175.12 202.669 1183.07 201.098 1188.43 201.098C1199.06 201.098 1197.95 201.375 1206.27 204.981C1213.2 207.94 1220.5 208.494 1227.43 210.714C1229.75 211.453 1228.45 209.789 1231.22 212.1C1234.46 214.782 1236.86 222.918 1238.25 226.894C1239.17 229.576 1239.27 231.61 1239.27 234.476C1239.17 239.931 1464.14 270.351 1464.14 275.806C1464.14 285.145 1452.21 344.227 1446.3 352.086C1443.16 356.339 1289.08 362.164 1285.76 366.233C1282.52 370.116 1255.72 377.605 1253.04 381.766C1250.63 385.557 1221.8 371.78 1217.91 373.537C1208.86 376.311 1188.62 412.555 1180.02 416.531C1172.16 420.322 1057.19 367.897 1020.96 374.092C994.338 378.622 967.442 382.043 940.639 385.28C894.796 390.827 849.693 391.567 803.572 391.567C642.845 391.659 482.117 391.382 321.39 391.382C265.472 391.382 209.555 391.659 153.638 391.659C136.909 391.659 120.087 392.676 103.543 388.423C89.402 384.817 74.1518 377.975 62.5987 368.822C55.9441 363.551 50.1212 357.172 43.3742 351.994C36.4423 346.723 30.4346 341.361 24.5194 334.981C21.8391 332.115 19.0664 329.156 16.386 326.29C11.4875 321.759 6.86618 316.859 2.70704 311.588C0.488835 306.78 1.04341 300.955 0.766134 295.777C0.396433 287.548 0.673731 279.227 0.673731 270.906C0.673731 251.766 -0.34297 232.349 0.766134 213.21C1.50554 200.266 4.09342 188.893 9.17681 177.058C13.0587 168.089 18.6967 160.692 23.7801 152.556C27.2922 146.916 29.6029 140.721 33.8544 135.45C42.0803 125.28 53.7258 117.143 63.7077 108.729C66.6654 106.233 69.9927 104.106 72.9503 101.61C77.2943 97.9113 77.4792 95.23 79.605 90.5145C80.9913 87.4633 82.9322 84.4121 84.5034 81.4534C86.0747 78.1248 88.0156 75.166 90.4187 72.3922C91.2505 71.4676 91.343 70.358 90.7884 69.1561C91.8051 65.8275 94.3005 63.2385 95.5945 59.6325C95.9642 58.523 97.0733 56.5813 97.2582 55.4718C97.6279 53.1603 96.796 51.0338 97.443 48.6298C98.7369 43.8218 103.081 38.644 111.492 30.3225Z" fill="#224680"/>
</svg>
