<svg width="420" height="48" viewBox="0 0 420 48" fill="none" xmlns="http://www.w3.org/2000/svg">
<path d="M419.319 0.708008H389.848V7.09913H419.319V0.708008Z" fill="#598DF0"/>
<path d="M244.774 0.708008H215.303V7.09913H244.774V0.708008Z" fill="#598DF0"/>
<path d="M307.555 47.967C303.086 48.1647 298.678 46.8541 295.039 44.2446C293.489 43.0772 292.221 41.5717 291.335 39.8419C290.449 38.1121 289.967 36.2031 289.925 34.259H297.008C297.129 35.3822 297.499 36.4636 298.095 37.4222C298.691 38.3808 299.496 39.1917 300.449 39.7942C302.72 41.2533 305.38 41.9817 308.075 41.8819C310.625 41.9757 313.141 41.2703 315.272 39.8639C316.143 39.3171 316.865 38.5574 317.362 37.6563C317.859 36.7551 318.117 35.7421 318.116 34.7122C318.133 33.8685 317.964 33.0318 317.611 32.2655C317.258 31.4993 316.731 30.8233 316.08 30.2887C314.147 28.8736 311.923 27.9127 309.569 27.4767L303.572 26.0474C300.085 25.3859 296.841 23.795 294.179 21.4418C293.159 20.4015 292.362 19.1617 291.841 17.7996C291.319 16.4375 291.083 14.9823 291.147 13.5245C291.107 11.6465 291.509 9.78581 292.324 8.09412C293.138 6.40242 294.341 4.92771 295.832 3.79067C299.32 1.15247 303.62 -0.179326 307.985 0.0257815C312.272 -0.155344 316.487 1.16925 319.904 3.77129C321.381 4.93252 322.578 6.41321 323.405 8.10263C324.231 9.79204 324.667 11.6468 324.68 13.5286H317.679C317.613 12.4623 317.315 11.4236 316.804 10.4864C316.293 9.5492 315.582 8.73644 314.722 8.1057C312.718 6.70081 310.307 5.99829 307.864 6.10706C305.459 6.00153 303.085 6.68109 301.097 8.04376C300.277 8.59396 299.61 9.34105 299.151 10.2171C298.692 11.0932 298.458 12.0704 298.472 13.0598C298.457 13.8349 298.627 14.6022 298.97 15.2972C299.313 15.9921 299.818 16.5944 300.441 17.0533C302.377 18.3869 304.564 19.3096 306.868 19.7647L311.983 21.012C315.756 21.6649 319.296 23.2922 322.251 25.7337C323.313 26.7942 324.142 28.0654 324.687 29.4659C325.233 30.8665 325.484 32.3656 325.419 33.8677C325.488 35.8454 325.088 37.8113 324.25 39.6029C323.412 41.3945 322.159 42.9604 320.598 44.1711C316.803 46.878 312.206 48.2159 307.555 47.967ZM267.662 47.967C263.193 48.1647 258.786 46.8541 255.147 44.2446C253.602 43.0721 252.343 41.5654 251.458 39.8367C250.573 38.108 250.082 36.2017 250.032 34.259H257.116C257.241 35.3807 257.614 36.4599 258.21 37.4177C258.805 38.3755 259.607 39.1876 260.556 39.7942C262.83 41.2474 265.496 41.9753 268.19 41.8819C270.741 41.9822 273.251 41.2763 275.38 39.8639C276.253 39.3194 276.978 38.5604 277.477 37.6589C277.976 36.7574 278.233 35.7432 278.232 34.7122C278.248 33.8685 278.079 33.0318 277.726 32.2655C277.373 31.4993 276.846 30.8233 276.195 30.2887C274.263 28.8805 272.046 27.9202 269.699 27.4767L263.702 26.0474C260.208 25.3907 256.954 23.7993 254.287 21.4418C253.276 20.3949 252.492 19.1539 251.971 17.7935C251.45 16.433 251.202 14.981 251.254 13.5245C251.214 11.644 251.62 9.78102 252.439 8.08868C253.257 6.39634 254.472 4.9231 255.969 3.79067C259.457 1.16585 263.743 -0.164678 268.1 0.0257815C272.387 -0.157637 276.603 1.1672 280.019 3.77129C281.503 4.92591 282.7 6.4051 283.527 8.09601C284.355 9.78692 284.792 11.6451 284.795 13.5286H277.801C277.735 12.4616 277.439 11.4223 276.926 10.485C276.414 9.54766 275.698 8.73528 274.837 8.1057C272.84 6.702 270.438 5.99939 268.002 6.10706C265.589 5.99926 263.207 6.6788 261.212 8.04376C260.395 8.59562 259.728 9.34358 259.273 10.2197C258.819 11.0958 258.592 12.0722 258.61 13.0598C258.59 13.8317 258.756 14.5974 259.092 15.2922C259.428 15.9871 259.924 16.5909 260.541 17.0533C262.489 18.3802 264.682 19.3022 266.991 19.7647L272.083 21.012C275.857 21.6628 279.397 23.2904 282.35 25.7337C283.413 26.7942 284.242 28.0654 284.787 29.4659C285.333 30.8665 285.576 32.3656 285.511 33.8677C285.581 35.8454 285.18 37.8113 284.342 39.6029C283.504 41.3945 282.252 42.9604 280.691 44.1711C276.9 46.8774 272.309 48.2154 267.662 47.967ZM148.075 47.967C145.136 48.0987 142.202 47.5842 139.483 46.4594C136.763 45.3346 134.323 43.6267 132.331 41.4557C128.245 36.5055 126.169 30.194 126.515 23.7776C126.186 17.4691 128.248 11.2692 132.286 6.42078C134.287 4.28144 136.728 2.60178 139.437 1.49722C142.147 0.392666 145.063 -0.110522 147.985 0.0219989C152.706 -0.113678 157.329 1.37621 161.089 4.24388C164.612 6.98608 166.966 10.9679 167.675 15.3839H160.297C159.568 12.7182 157.976 10.3713 155.77 8.71376C153.522 7.0986 150.81 6.26236 148.045 6.33165C146.07 6.23893 144.099 6.6066 142.289 7.40568C140.48 8.20476 138.877 9.4136 137.612 10.9372C134.909 14.6276 133.576 19.1481 133.84 23.7194C133.586 28.4101 134.942 33.0465 137.68 36.8581C138.924 38.4258 140.518 39.6779 142.334 40.5136C144.151 41.3492 146.139 41.7449 148.136 41.6687C151.501 41.8099 154.789 40.6303 157.302 38.3802C158.479 37.2914 159.415 35.9634 160.04 34.4845C160.665 33.0057 160.962 31.4101 160.923 29.8045V29.0106H148.973V23.1771H168.029V27.9181C168.179 30.6026 167.792 33.29 166.882 35.8191C165.972 38.3482 164.558 40.6671 162.733 42.637C160.777 44.4761 158.472 45.897 155.951 46.8133C153.431 47.7295 150.752 48.1221 148.075 47.967ZM99.658 47.967C96.7108 48.1034 93.7691 47.5978 91.0353 46.4851C88.3015 45.3725 85.842 43.6792 83.8232 41.5216C79.7404 36.6323 77.6551 30.3746 77.9842 24.006C77.6551 17.6373 79.7404 11.3798 83.8232 6.49052C85.8375 4.32562 88.2932 2.62575 91.0277 1.50881C93.7622 0.391863 96.7086 -0.115373 99.658 0.0219989C102.607 -0.113807 105.554 0.394324 108.288 1.51117C111.023 2.62802 113.478 4.32687 115.493 6.49052C119.584 11.3762 121.678 17.6342 121.354 24.006C121.684 30.3746 119.598 36.6323 115.515 41.5216C113.492 43.6798 111.026 45.3733 108.288 46.4858C105.551 47.5984 102.609 48.1037 99.658 47.967ZM99.658 6.35104C97.6658 6.27517 95.6869 6.66634 93.8718 7.49339C92.0567 8.32044 90.4555 9.5605 89.2021 11.1152C86.4598 14.8299 85.094 19.3869 85.3396 24.0022C85.0953 28.6113 86.4612 33.1617 89.2021 36.8697C90.4555 38.4245 92.0567 39.6645 93.8718 40.4916C95.6869 41.3186 97.6658 41.7098 99.658 41.6339C101.649 41.7089 103.631 41.3172 105.444 40.4902C107.258 39.6631 108.854 38.4236 110.106 36.8697C112.847 33.1617 114.213 28.6113 113.969 24.0022C114.215 19.3869 112.849 14.8299 110.106 11.1152C108.855 9.55992 107.258 8.31894 105.444 7.49055C103.631 6.66216 101.65 6.2692 99.658 6.34324V6.35104ZM182.219 47.2001H175.045V0.796727H192.969C197.089 0.592898 201.13 1.97894 204.263 4.67013C205.655 5.99029 206.751 7.59548 207.469 9.37666C208.187 11.1578 208.512 13.0732 208.427 14.9927C208.493 17.9344 207.655 20.8252 206.028 23.274C204.451 25.6245 202.131 27.3749 199.442 28.2437L209.8 47.2232H201.524L192.117 29.3669H182.219V47.2232V47.2001ZM182.219 6.85082V23.5296H192.291C194.642 23.6774 196.957 22.896 198.741 21.3527C199.525 20.5373 200.128 19.5685 200.521 18.5067C200.914 17.445 201.089 16.3134 201.026 15.1825C201.089 14.0504 200.908 12.9179 200.498 11.8611C200.089 10.8043 199.458 9.84747 198.65 9.05467C196.839 7.4958 194.492 6.70656 192.109 6.8546H182.219V6.85082ZM46.5484 47.2001H39.3515V0.796727H57.276C61.394 0.590126 65.4335 1.97663 68.5618 4.67013C69.9571 5.98777 71.0568 7.5925 71.7755 9.3743C72.4942 11.1561 72.8155 13.0727 72.726 14.9927C72.7887 17.9307 71.9595 20.8185 70.3497 23.274C68.7675 25.6262 66.4426 27.3766 63.7487 28.2437L74.1066 47.2232H65.8459L56.4235 29.3669H46.5484V47.2232V47.2001ZM46.5484 6.85082V23.5296H56.6196C58.9635 23.675 61.2711 22.8935 63.0471 21.3527C63.8311 20.5373 64.434 19.5685 64.8275 18.5067C65.2209 17.445 65.3957 16.3134 65.3329 15.1825C65.3953 14.0504 65.2145 12.9177 64.8049 11.8609C64.3952 10.8041 63.7651 9.84732 62.9566 9.05467C61.1454 7.4958 58.7982 6.70656 56.416 6.8546H46.5484V6.85082ZM419.492 47.196H390.116V20.5782H418.293V26.5469H397.298V40.9561H419.5V47.1923L419.492 47.196ZM368.51 47.196H360.657L344.143 0.792708H351.944L364.527 39.097H364.731L377.367 0.792708H385.039L368.518 47.1923L368.51 47.196ZM339.051 47.196H331.854V0.792708H339.051V47.1923V47.196ZM244.714 47.196H215.352V20.5782H243.529V26.5469H222.534V40.9561H244.729V47.1923L244.714 47.196ZM7.67432 47.196H0.5V0.792708H17.8361C19.8614 0.722468 21.8752 1.06384 23.7656 1.79605C25.6561 2.52826 27.3828 3.63634 28.8352 5.0536C30.2488 6.50429 31.3563 8.22729 32.0866 10.1188C32.8169 12.0102 33.1533 14.0307 33.0824 16.0577C33.151 18.0972 32.8059 20.1294 32.064 22.0295C31.3221 23.9297 30.1985 25.658 28.7673 27.1087C27.2914 28.5321 25.543 29.6429 23.6298 30.3749C21.7167 31.107 19.6787 31.445 17.6324 31.3693H7.67432V47.2272V47.196ZM7.67432 6.87398V25.2999H15.935C18.5666 25.4539 21.1575 24.5933 23.1772 22.8943C24.055 21.998 24.736 20.9275 25.1763 19.7515C25.6167 18.5754 25.8072 17.3197 25.7346 16.0655C25.805 14.818 25.6092 13.5695 25.1688 12.4006C24.7284 11.2318 24.0527 10.1684 23.1772 9.27926C21.1729 7.56901 18.584 6.70665 15.9576 6.87398H7.67432ZM419.492 7.01347H419.402V0.796727H419.492V6.99408V7.01347Z" fill="#F5F6FD"/>
</svg>
