<svg width="40" height="40" viewBox="0 0 40 40" fill="none" xmlns="http://www.w3.org/2000/svg">
<path d="M40 20C40 31.0457 31.0457 40 20 40C8.9543 40 0 31.0457 0 20C0 8.9543 8.9543 0 20 0C31.0457 0 40 8.9543 40 20Z" fill="#3973E4"/>
<path d="M29.75 16.3885C29.75 21.3924 25.7008 25.449 20.7059 25.449C15.7109 25.449 11.6617 21.3924 11.6617 16.3885C11.6617 11.3845 15.7109 7.32792 20.7059 7.32792C25.7008 7.32792 29.75 11.3845 29.75 16.3885ZM15.2794 16.3885C15.2794 19.3908 17.7089 21.8248 20.7059 21.8248C23.7028 21.8248 26.1323 19.3908 26.1323 16.3885C26.1323 13.3861 23.7028 10.9521 20.7059 10.9521C17.7089 10.9521 15.2794 13.3861 15.2794 16.3885Z" fill="#F5F6FD" fill-opacity="0.25"/>
<path d="M20.7059 9.14002C20.7059 8.13922 21.5252 7.30963 22.5059 7.50917C23.8147 7.77547 25.0561 8.33051 26.1361 9.14288C27.7023 10.3209 28.8445 11.9765 29.3909 13.8606C29.9373 15.7448 29.8584 17.7557 29.1661 19.5911C28.4739 21.4265 27.2056 22.9872 25.552 24.0385C23.8983 25.0898 21.9487 25.575 19.9963 25.4211C18.0438 25.2671 16.194 24.4824 14.7249 23.1849C13.2558 21.8873 12.2468 20.1471 11.8497 18.2258C11.5756 16.8999 11.6031 15.5372 11.9205 14.2365C12.1577 13.2648 13.2567 12.8768 14.1615 13.3033C15.0645 13.729 15.4175 14.8131 15.3107 15.8057C15.2505 16.3647 15.2769 16.9332 15.3921 17.4909C15.6304 18.6436 16.2358 19.6878 17.1173 20.4663C17.9987 21.2448 19.1086 21.7157 20.2801 21.808C21.4516 21.9004 22.6213 21.6093 23.6135 20.9785C24.6057 20.3477 25.3667 19.4113 25.782 18.3101C26.1974 17.2088 26.2447 16.0023 25.9169 14.8718C25.589 13.7413 24.9037 12.7479 23.964 12.0411C23.5116 11.7008 23.012 11.4358 22.4844 11.2524C21.5391 10.9239 20.7059 10.1408 20.7059 9.14002Z" fill="#F5F6FD"/>
<path d="M15.2954 26.27C13.8364 25.4278 12.5913 24.2555 11.6617 22.8549V31.8553C11.6617 32.8587 12.4752 33.6721 13.4786 33.6721C14.482 33.6721 15.2954 32.8587 15.2954 31.8553V26.27Z" fill="#F5F6FD"/>
</svg>
