<svg width="174" height="43" viewBox="0 0 174 43" fill="none" xmlns="http://www.w3.org/2000/svg">
<path d="M43 21.5C43 33.3741 33.3741 43 21.5 43C9.62588 43 0 33.3741 0 21.5C0 9.62588 9.62588 0 21.5 0C33.3741 0 43 9.62588 43 21.5Z" fill="#3973E4"/>
<path d="M31.9812 17.6176C31.9812 22.9969 27.6284 27.3577 22.2588 27.3577C16.8893 27.3577 12.5364 22.9969 12.5364 17.6176C12.5364 12.2383 16.8893 7.87751 22.2588 7.87751C27.6284 7.87751 31.9812 12.2383 31.9812 17.6176ZM16.4254 17.6176C16.4254 20.8452 19.0371 23.4616 22.2588 23.4616C25.4805 23.4616 28.0923 20.8452 28.0923 17.6176C28.0923 14.39 25.4805 11.7735 22.2588 11.7735C19.0371 11.7735 16.4254 14.39 16.4254 17.6176Z" fill="#F5F6FD" fill-opacity="0.25"/>
<path d="M22.2588 9.82552C22.2588 8.74967 23.1395 7.85785 24.1938 8.07235C25.6008 8.35863 26.9353 8.9553 28.0964 9.8286C29.78 11.095 31.0078 12.8747 31.5952 14.9002C32.1826 16.9257 32.0978 19.0874 31.3536 21.0605C30.6094 23.0335 29.246 24.7112 27.4684 25.8414C25.6907 26.9716 23.5949 27.4931 21.496 27.3276C19.3971 27.1622 17.4085 26.3186 15.8292 24.9237C14.25 23.5289 13.1653 21.6581 12.7384 19.5927C12.4437 18.1674 12.4733 16.7025 12.8146 15.3043C13.0695 14.2596 14.2509 13.8425 15.2236 14.301C16.1943 14.7587 16.5738 15.9241 16.459 16.9912C16.3943 17.592 16.4226 18.2032 16.5466 18.8027C16.8027 20.0419 17.4535 21.1644 18.4011 22.0013C19.3486 22.8382 20.5418 23.3443 21.8011 23.4436C23.0605 23.5429 24.318 23.23 25.3845 22.5519C26.4511 21.8738 27.2692 20.8671 27.7157 19.6833C28.1622 18.4995 28.2131 17.2024 27.8606 15.9872C27.5082 14.7719 26.7715 13.704 25.7613 12.9442C25.275 12.5784 24.7379 12.2935 24.1707 12.0963C23.1545 11.7432 22.2588 10.9014 22.2588 9.82552Z" fill="#F5F6FD"/>
<path d="M16.4426 28.2403C14.8742 27.3349 13.5357 26.0747 12.5364 24.569V34.2444C12.5364 35.3231 13.4108 36.1975 14.4895 36.1975C15.5681 36.1975 16.4426 35.3231 16.4426 34.2444V28.2403Z" fill="#F5F6FD"/>
<path d="M173.948 14.8916H165.578V16.7049H173.948V14.8916Z" fill="#598DF0"/>
<path d="M124.376 14.8916H116.006V16.7049H124.376V14.8916Z" fill="#598DF0"/>
<path d="M142.207 28.2999C140.937 28.356 139.686 27.9841 138.652 27.2437C138.212 26.9125 137.852 26.4854 137.6 25.9946C137.348 25.5038 137.212 24.9622 137.199 24.4106H139.211C139.245 24.7292 139.35 25.0361 139.52 25.308C139.689 25.58 139.918 25.8101 140.188 25.981C140.833 26.395 141.589 26.6017 142.354 26.5734C143.078 26.6 143.793 26.3999 144.398 26.0008C144.646 25.8457 144.851 25.6301 144.992 25.3744C145.133 25.1188 145.206 24.8314 145.206 24.5391C145.211 24.2998 145.163 24.0624 145.063 23.845C144.962 23.6276 144.813 23.4358 144.628 23.2841C144.079 22.8826 143.447 22.61 142.779 22.4863L141.075 22.0807C140.085 21.893 139.164 21.4417 138.408 20.774C138.118 20.4788 137.892 20.1271 137.744 19.7406C137.595 19.3542 137.528 18.9413 137.546 18.5277C137.535 17.9948 137.649 17.4669 137.881 16.9869C138.112 16.507 138.454 16.0885 138.877 15.7659C139.868 15.0174 141.089 14.6396 142.329 14.6977C143.546 14.6464 144.743 15.0222 145.714 15.7604C146.133 16.0899 146.473 16.51 146.708 16.9893C146.943 17.4687 147.067 17.9949 147.07 18.5288H145.082C145.063 18.2263 144.979 17.9316 144.833 17.6657C144.688 17.3998 144.486 17.1692 144.242 16.9902C143.673 16.5916 142.988 16.3923 142.294 16.4232C141.611 16.3932 140.937 16.586 140.372 16.9726C140.14 17.1287 139.95 17.3407 139.82 17.5893C139.689 17.8378 139.623 18.1151 139.627 18.3958C139.623 18.6157 139.671 18.8334 139.768 19.0306C139.866 19.2278 140.009 19.3987 140.186 19.5289C140.736 19.9072 141.357 20.169 142.012 20.2982L143.464 20.6521C144.536 20.8373 145.541 21.299 146.38 21.9917C146.682 22.2926 146.917 22.6533 147.072 23.0507C147.227 23.448 147.299 23.8734 147.28 24.2995C147.3 24.8607 147.186 25.4184 146.948 25.9268C146.71 26.4351 146.354 26.8794 145.911 27.2229C144.833 27.9909 143.527 28.3705 142.207 28.2999ZM130.877 28.2999C129.607 28.356 128.356 27.9841 127.322 27.2437C126.883 26.9111 126.526 26.4836 126.274 25.9931C126.023 25.5026 125.884 24.9618 125.869 24.4106H127.881C127.917 24.7288 128.023 25.035 128.192 25.3068C128.361 25.5785 128.589 25.8089 128.858 25.981C129.504 26.3933 130.261 26.5999 131.027 26.5734C131.751 26.6018 132.464 26.4016 133.069 26.0008C133.316 25.8463 133.522 25.631 133.664 25.3752C133.806 25.1194 133.879 24.8317 133.878 24.5391C133.883 24.2998 133.835 24.0624 133.735 23.845C133.635 23.6276 133.485 23.4358 133.3 23.2841C132.751 22.8846 132.122 22.6121 131.455 22.4863L129.752 22.0807C128.759 21.8944 127.835 21.4429 127.078 20.774C126.791 20.477 126.568 20.1249 126.42 19.7389C126.272 19.3529 126.202 18.9409 126.217 18.5277C126.205 17.9941 126.32 17.4655 126.553 16.9854C126.785 16.5052 127.13 16.0872 127.556 15.7659C128.546 15.0212 129.764 14.6437 131.001 14.6977C132.219 14.6457 133.416 15.0216 134.386 15.7604C134.808 16.088 135.147 16.5077 135.382 16.9875C135.617 17.4672 135.742 17.9944 135.742 18.5288H133.756C133.737 18.2261 133.653 17.9312 133.508 17.6653C133.362 17.3993 133.159 17.1688 132.914 16.9902C132.347 16.592 131.665 16.3926 130.973 16.4232C130.288 16.3926 129.611 16.5854 129.045 16.9726C128.813 17.1292 128.623 17.3414 128.494 17.59C128.365 17.8386 128.301 18.1156 128.306 18.3958C128.3 18.6148 128.347 18.8321 128.443 19.0292C128.538 19.2264 128.679 19.3977 128.854 19.5289C129.407 19.9054 130.03 20.1669 130.686 20.2982L132.132 20.6521C133.204 20.8367 134.209 21.2985 135.048 21.9917C135.35 22.2926 135.585 22.6533 135.74 23.0507C135.895 23.448 135.964 23.8734 135.946 24.2995C135.966 24.8607 135.852 25.4184 135.614 25.9268C135.376 26.4351 135.02 26.8794 134.577 27.2229C133.5 27.9907 132.196 28.3703 130.877 28.2999ZM96.9128 28.2999C96.0781 28.3372 95.2448 28.1912 94.4724 27.8721C93.7 27.553 93.007 27.0684 92.4413 26.4524C91.2809 25.0479 90.6912 23.2572 90.7893 21.4367C90.696 19.6469 91.2816 17.8878 92.4284 16.5122C92.9967 15.9052 93.69 15.4286 94.4596 15.1152C95.2291 14.8018 96.0572 14.6591 96.8871 14.6967C98.228 14.6582 99.5411 15.0809 100.609 15.8945C101.609 16.6726 102.278 17.8023 102.479 19.0552H100.384C100.177 18.2989 99.7246 17.633 99.0982 17.1627C98.4597 16.7045 97.6894 16.4672 96.9042 16.4869C96.3433 16.4606 95.7833 16.5649 95.2694 16.7916C94.7555 17.0183 94.3004 17.3613 93.9411 17.7936C93.1733 18.8406 92.7948 20.1232 92.8698 21.4202C92.7978 22.7511 93.1828 24.0665 93.9603 25.148C94.3139 25.5928 94.7665 25.948 95.2823 26.1851C95.7981 26.4222 96.3628 26.5345 96.9299 26.5129C97.8858 26.5529 98.8196 26.2183 99.5331 25.5798C99.8675 25.2709 100.133 24.8941 100.311 24.4746C100.488 24.055 100.573 23.6023 100.562 23.1467V22.9215H97.1678V21.2663H102.58V22.6115C102.623 23.3732 102.513 24.1356 102.254 24.8532C101.996 25.5708 101.594 26.2287 101.076 26.7876C100.52 27.3094 99.8655 27.7126 99.1496 27.9725C98.4337 28.2325 97.673 28.3439 96.9128 28.2999ZM83.1618 28.2999C82.3248 28.3386 81.4893 28.1951 80.7129 27.8794C79.9365 27.5637 79.238 27.0833 78.6646 26.4712C77.505 25.0839 76.9128 23.3085 77.0062 21.5015C76.9128 19.6946 77.505 17.9192 78.6646 16.532C79.2367 15.9177 79.9341 15.4354 80.7107 15.1185C81.4874 14.8016 82.3242 14.6577 83.1618 14.6967C83.9994 14.6581 84.8364 14.8023 85.6129 15.1192C86.3895 15.4361 87.0867 15.9181 87.6591 16.532C88.8211 17.9181 89.4156 19.6937 89.3238 21.5015C89.4173 23.3085 88.825 25.0839 87.6655 26.4712C87.0909 27.0835 86.3904 27.564 85.6129 27.8796C84.8354 28.1953 83.9999 28.3386 83.1618 28.2999ZM83.1618 16.4924C82.596 16.4709 82.034 16.5818 81.5185 16.8165C81.003 17.0511 80.5482 17.403 80.1922 17.8441C79.4134 18.8981 79.0255 20.191 79.0952 21.5004C79.0259 22.8082 79.4138 24.0992 80.1922 25.1513C80.5482 25.5924 81.003 25.9442 81.5185 26.1789C82.034 26.4136 82.596 26.5245 83.1618 26.503C83.7273 26.5243 84.2901 26.4131 84.8052 26.1785C85.3203 25.9438 85.7736 25.5922 86.1293 25.1513C86.9077 24.0992 87.2956 22.8082 87.2263 21.5004C87.296 20.191 86.9081 18.8981 86.1293 17.8441C85.7738 17.4028 85.3203 17.0507 84.8052 16.8157C84.2901 16.5807 83.7275 16.4692 83.1618 16.4902V16.4924ZM106.61 28.0823H104.572V14.9165H109.663C110.833 14.8586 111.981 15.2519 112.871 16.0155C113.266 16.39 113.577 16.8455 113.781 17.3508C113.985 17.8562 114.078 18.3996 114.053 18.9442C114.072 19.7789 113.834 20.5991 113.372 21.2938C112.924 21.9607 112.265 22.4574 111.501 22.7039L114.443 28.0888H112.093L109.421 23.0225H106.61V28.0888V28.0823ZM106.61 16.6342V21.3664H109.47C110.138 21.4083 110.796 21.1866 111.302 20.7487C111.525 20.5174 111.696 20.2425 111.808 19.9413C111.92 19.64 111.969 19.319 111.951 18.9981C111.969 18.6769 111.918 18.3556 111.801 18.0557C111.685 17.7559 111.506 17.4844 111.277 17.2595C110.762 16.8172 110.095 16.5932 109.419 16.6353H106.61V16.6342ZM68.0782 28.0823H66.0342V14.9165H71.1249C72.2945 14.8579 73.4417 15.2512 74.3302 16.0155C74.7265 16.3893 75.0388 16.8446 75.2429 17.3502C75.447 17.8557 75.5383 18.3995 75.5129 18.9442C75.5307 19.7778 75.2952 20.5972 74.838 21.2938C74.3886 21.9612 73.7283 22.4579 72.9632 22.7039L75.905 28.0888H73.5589L70.8828 23.0225H68.0782V28.0888V28.0823ZM68.0782 16.6342V21.3664H70.9385C71.6042 21.4076 72.2596 21.1859 72.764 20.7487C72.9866 20.5174 73.1579 20.2425 73.2696 19.9413C73.3814 19.64 73.431 19.319 73.4132 18.9981C73.4309 18.6769 73.3795 18.3555 73.2632 18.0557C73.1468 17.7558 72.9679 17.4844 72.7383 17.2595C72.2239 16.8172 71.5572 16.5932 70.8807 16.6353H68.0782V16.6342ZM173.998 28.0811H165.655V20.529H173.657V22.2225H167.694V26.3107H174V28.08L173.998 28.0811ZM159.518 28.0811H157.288L152.598 14.9153H154.813L158.387 25.7832H158.445L162.034 14.9153H164.213L159.521 28.08L159.518 28.0811ZM151.152 28.0811H149.108V14.9153H151.152V28.08V28.0811ZM124.359 28.0811H116.02V20.529H124.023V22.2225H118.06V26.3107H124.363V28.08L124.359 28.0811ZM57.0376 28.0811H55V14.9153H59.9236C60.4988 14.8954 61.0708 14.9923 61.6077 15.2C62.1446 15.4078 62.635 15.7221 63.0475 16.1243C63.4489 16.5359 63.7635 17.0247 63.9709 17.5614C64.1783 18.098 64.2738 18.6713 64.2537 19.2464C64.2732 19.8251 64.1752 20.4016 63.9645 20.9408C63.7538 21.4799 63.4346 21.9703 63.0282 22.3818C62.609 22.7857 62.1124 23.1009 61.5691 23.3086C61.0257 23.5163 60.4469 23.6122 59.8658 23.5907H57.0376V28.09V28.0811ZM57.0376 16.6408V21.8686H59.3837C60.1311 21.9123 60.8669 21.6682 61.4405 21.1861C61.6898 20.9318 61.8832 20.6281 62.0083 20.2944C62.1334 19.9607 62.1875 19.6045 62.1669 19.2486C62.1869 18.8947 62.1313 18.5404 62.0062 18.2088C61.8811 17.8772 61.6892 17.5755 61.4405 17.3232C60.8713 16.8379 60.136 16.5933 59.3901 16.6408H57.0376ZM173.998 16.6803H173.972V14.9165H173.998V16.6748V16.6803Z" fill="#F5F6FD"/>
</svg>
