<svg width="143" height="32" viewBox="0 0 143 32" fill="none" xmlns="http://www.w3.org/2000/svg">
<path d="M32 16C32 24.8366 24.8366 32 16 32C7.16344 32 0 24.8366 0 16C0 7.16344 7.16344 0 16 0C24.8366 0 32 7.16344 32 16Z" fill="#3973E4"/>
<path d="M23.8 13.1108C23.8 17.114 20.5606 20.3592 16.5647 20.3592C12.5687 20.3592 9.32939 17.114 9.32939 13.1108C9.32939 9.10756 12.5687 5.86233 16.5647 5.86233C20.5606 5.86233 23.8 9.10756 23.8 13.1108ZM12.2235 13.1108C12.2235 15.5127 14.1671 17.4598 16.5647 17.4598C18.9623 17.4598 20.9059 15.5127 20.9059 13.1108C20.9059 10.7088 18.9623 8.7617 16.5647 8.7617C14.1671 8.7617 12.2235 10.7088 12.2235 13.1108Z" fill="#F5F6FD" fill-opacity="0.25"/>
<path d="M16.5647 7.31202C16.5647 6.51138 17.2201 5.8477 18.0047 6.00733C19.0518 6.22038 20.0449 6.66441 20.9089 7.3143C22.1619 8.25675 23.0756 9.58119 23.5127 11.0885C23.9498 12.5958 23.8867 14.2046 23.3329 15.6729C22.7791 17.1412 21.7645 18.3898 20.4416 19.2308C19.1187 20.0719 17.559 20.46 15.997 20.3368C14.435 20.2137 12.9552 19.5859 11.7799 18.5479C10.6046 17.5099 9.79745 16.1177 9.47972 14.5806C9.26046 13.5199 9.28247 12.4298 9.53642 11.3892C9.72614 10.6118 10.6053 10.3014 11.3292 10.6426C12.0516 10.9832 12.334 11.8505 12.2485 12.6446C12.2004 13.0918 12.2215 13.5466 12.3137 13.9927C12.5043 14.9149 12.9887 15.7502 13.6938 16.373C14.399 16.9959 15.2869 17.3725 16.2241 17.4464C17.1613 17.5203 18.0971 17.2874 18.8908 16.7828C19.6846 16.2782 20.2933 15.529 20.6256 14.648C20.9579 13.7671 20.9958 12.8018 20.7335 11.8974C20.4712 10.993 19.923 10.1984 19.1712 9.63289C18.8093 9.36065 18.4096 9.14862 17.9875 9.00193C17.2313 8.73909 16.5647 8.11266 16.5647 7.31202Z" fill="#F5F6FD"/>
<path d="M12.2363 21.016C11.0691 20.3423 10.0731 19.4044 9.32939 18.2839V25.4842C9.32939 26.2869 9.98014 26.9377 10.7829 26.9377C11.5856 26.9377 12.2363 26.2869 12.2363 25.4842V21.016Z" fill="#F5F6FD"/>
<path d="M142.065 10.5508H135.164V12.0457H142.065V10.5508Z" fill="#598DF0"/>
<path d="M101.195 10.5508H94.2949V12.0457H101.195V10.5508Z" fill="#598DF0"/>
<path d="M115.895 21.6057C114.849 21.6519 113.817 21.3454 112.965 20.735C112.602 20.4619 112.305 20.1098 112.097 19.7051C111.89 19.3005 111.777 18.854 111.767 18.3992H113.426C113.454 18.662 113.541 18.9149 113.68 19.1392C113.82 19.3634 114.008 19.553 114.231 19.694C114.763 20.0353 115.386 20.2057 116.017 20.1823C116.614 20.2043 117.203 20.0393 117.702 19.7103C117.906 19.5824 118.075 19.4047 118.191 19.1939C118.308 18.9831 118.368 18.7462 118.368 18.5053C118.372 18.3079 118.332 18.1122 118.25 17.933C118.167 17.7537 118.044 17.5956 117.891 17.4705C117.438 17.1396 116.918 16.9148 116.367 16.8128L114.962 16.4785C114.146 16.3237 113.387 15.9516 112.763 15.4012C112.524 15.1579 112.338 14.8679 112.216 14.5492C112.094 14.2306 112.038 13.8902 112.053 13.5493C112.044 13.11 112.138 12.6747 112.329 12.279C112.519 11.8833 112.801 11.5384 113.15 11.2724C113.967 10.6553 114.974 10.3438 115.996 10.3918C117 10.3494 117.987 10.6592 118.787 11.2679C119.132 11.5395 119.413 11.8859 119.606 12.281C119.8 12.6762 119.902 13.11 119.905 13.5502H118.266C118.25 13.3008 118.18 13.0578 118.061 12.8386C117.941 12.6194 117.774 12.4293 117.573 12.2817C117.104 11.9531 116.539 11.7888 115.968 11.8142C115.404 11.7896 114.848 11.9485 114.383 12.2673C114.191 12.396 114.035 12.5707 113.927 12.7756C113.82 12.9805 113.765 13.2091 113.768 13.4405C113.765 13.6219 113.805 13.8013 113.885 13.9639C113.965 14.1265 114.083 14.2673 114.229 14.3747C114.683 14.6866 115.195 14.9024 115.734 15.0089L116.932 15.3007C117.815 15.4534 118.644 15.834 119.336 16.4051C119.585 16.6532 119.779 16.9505 119.907 17.2781C120.034 17.6057 120.093 17.9564 120.078 18.3077C120.094 18.7703 120 19.2302 119.804 19.6492C119.608 20.0683 119.315 20.4346 118.949 20.7178C118.061 21.3509 116.984 21.6639 115.895 21.6057ZM106.555 21.6057C105.508 21.6519 104.476 21.3454 103.624 20.735C103.262 20.4607 102.968 20.1083 102.76 19.7039C102.553 19.2996 102.438 18.8537 102.426 18.3992H104.085C104.114 18.6616 104.202 18.9141 104.341 19.1381C104.481 19.3621 104.668 19.5521 104.891 19.694C105.423 20.0339 106.047 20.2042 106.678 20.1823C107.275 20.2058 107.863 20.0407 108.362 19.7103C108.566 19.5829 108.736 19.4054 108.853 19.1945C108.969 18.9836 109.029 18.7464 109.029 18.5053C109.033 18.3079 108.993 18.1122 108.911 17.933C108.828 17.7537 108.705 17.5956 108.552 17.4705C108.1 17.1412 107.581 16.9165 107.031 16.8128L105.627 16.4785C104.809 16.3249 104.047 15.9526 103.423 15.4012C103.186 15.1563 103.002 14.866 102.88 14.5478C102.758 14.2296 102.7 13.8899 102.713 13.5493C102.703 13.1094 102.798 12.6736 102.99 12.2778C103.182 11.8819 103.466 11.5373 103.817 11.2724C104.633 10.6584 105.637 10.3472 106.657 10.3918C107.661 10.3489 108.648 10.6588 109.448 11.2679C109.795 11.538 110.075 11.884 110.269 12.2795C110.463 12.675 110.565 13.1096 110.566 13.5502H108.929C108.913 13.3006 108.844 13.0575 108.724 12.8383C108.604 12.619 108.436 12.429 108.234 12.2817C107.767 11.9534 107.204 11.7891 106.634 11.8142C106.069 11.789 105.511 11.948 105.044 12.2673C104.853 12.3963 104.697 12.5713 104.59 12.7762C104.484 12.9812 104.431 13.2095 104.435 13.4405C104.43 13.6211 104.469 13.8002 104.548 13.9627C104.627 14.1253 104.743 14.2665 104.887 14.3747C105.343 14.685 105.857 14.9007 106.397 15.0089L107.59 15.3007C108.473 15.4529 109.302 15.8336 109.994 16.4051C110.242 16.6532 110.436 16.9505 110.564 17.2781C110.692 17.6057 110.749 17.9564 110.734 18.3077C110.75 18.7703 110.656 19.2302 110.46 19.6492C110.264 20.0683 109.971 20.4346 109.605 20.7178C108.717 21.3508 107.643 21.6638 106.555 21.6057ZM78.5539 21.6057C77.8657 21.6365 77.1788 21.5161 76.542 21.253C75.9052 20.9899 75.3338 20.5904 74.8675 20.0826C73.9108 18.9247 73.4247 17.4484 73.5056 15.9475C73.4286 14.4719 73.9114 13.0217 74.8569 11.8876C75.3254 11.3872 75.8969 10.9943 76.5314 10.736C77.1658 10.4776 77.8485 10.3599 78.5327 10.3909C79.6381 10.3592 80.7207 10.7077 81.6009 11.3784C82.4259 12.0199 82.9771 12.9512 83.1429 13.9842H81.4154C81.2448 13.3606 80.872 12.8117 80.3556 12.424C79.8292 12.0462 79.1942 11.8506 78.5468 11.8668C78.0844 11.8451 77.6227 11.9311 77.1991 12.118C76.7754 12.3049 76.4002 12.5877 76.1039 12.9441C75.471 13.8073 75.1589 14.8647 75.2207 15.9339C75.1614 17.0311 75.4788 18.1156 76.1198 19.0072C76.4113 19.3739 76.7844 19.6668 77.2097 19.8622C77.6349 20.0577 78.1005 20.1503 78.568 20.1324C79.356 20.1655 80.1259 19.8896 80.7142 19.3632C80.9898 19.1085 81.2091 18.7979 81.3554 18.452C81.5016 18.1061 81.5712 17.7329 81.562 17.3573V17.1716H78.7641V15.8071H83.2259V16.9161C83.2611 17.544 83.1705 18.1726 82.9575 18.7642C82.7444 19.3558 82.4132 19.8982 81.986 20.3589C81.528 20.7891 80.9882 21.1215 80.398 21.3358C79.8078 21.5501 79.1806 21.642 78.5539 21.6057ZM67.2173 21.6057C66.5272 21.6376 65.8384 21.5193 65.1983 21.2591C64.5582 20.9988 63.9823 20.6027 63.5096 20.098C62.5537 18.9544 62.0654 17.4906 62.1425 16.001C62.0654 14.5113 62.5537 13.0476 63.5096 11.9039C63.9813 11.3975 64.5563 10.9999 65.1965 10.7387C65.8368 10.4774 66.5267 10.3588 67.2173 10.3909C67.9078 10.3591 68.5978 10.478 69.238 10.7392C69.8782 11.0005 70.453 11.3978 70.9249 11.9039C71.8829 13.0467 72.373 14.5105 72.2974 16.001C72.3744 17.4906 71.8862 18.9544 70.9302 20.098C70.4564 20.6029 69.879 20.999 69.238 21.2592C68.597 21.5195 67.9082 21.6376 67.2173 21.6057ZM67.2173 11.8713C66.7508 11.8536 66.2874 11.9451 65.8625 12.1385C65.4375 12.332 65.0625 12.622 64.7691 12.9857C64.127 13.8546 63.8072 14.9205 63.8647 16.0001C63.8075 17.0782 64.1273 18.1426 64.7691 19.0099C65.0625 19.3736 65.4375 19.6636 65.8625 19.8571C66.2874 20.0506 66.7508 20.1421 67.2173 20.1243C67.6834 20.1418 68.1474 20.0502 68.5721 19.8568C68.9967 19.6633 69.3705 19.3734 69.6637 19.0099C70.3055 18.1426 70.6253 17.0782 70.5681 16.0001C70.6256 14.9205 70.3058 13.8546 69.6637 12.9857C69.3706 12.6219 68.9968 12.3316 68.5721 12.1379C68.1474 11.9441 67.6836 11.8522 67.2173 11.8695V11.8713ZM86.5485 21.4263H84.8687V10.5721H89.0656C90.0303 10.5244 90.9764 10.8486 91.7099 11.4781C92.0358 11.7869 92.2923 12.1624 92.4606 12.579C92.6288 12.9957 92.7049 13.4437 92.6849 13.8927C92.7002 14.5808 92.5041 15.257 92.1232 15.8298C91.7539 16.3796 91.2108 16.789 90.5811 16.9922L93.0064 21.4317H91.0687L88.866 17.2549H86.5485V21.4317V21.4263ZM86.5485 11.9882V15.8895H88.9066C89.4571 15.9241 89.9992 15.7413 90.4169 15.3803C90.6004 15.1896 90.7416 14.963 90.8337 14.7146C90.9259 14.4663 90.9668 14.2016 90.9521 13.9371C90.9666 13.6723 90.9244 13.4074 90.8284 13.1602C90.7325 12.913 90.5849 12.6892 90.3957 12.5037C89.9716 12.1391 89.422 11.9545 88.8642 11.9891H86.5485V11.9882ZM54.782 21.4263H53.0968V10.5721H57.2938C58.258 10.5238 59.2038 10.8481 59.9363 11.4781C60.263 11.7863 60.5205 12.1617 60.6887 12.5785C60.857 12.9953 60.9322 13.4436 60.9113 13.8927C60.926 14.5799 60.7318 15.2554 60.3549 15.8298C59.9844 16.38 59.4401 16.7894 58.8093 16.9922L61.2345 21.4317H59.3004L57.0942 17.2549H54.782V21.4317V21.4263ZM54.782 11.9882V15.8895H57.1401C57.6889 15.9235 58.2292 15.7407 58.645 15.3803C58.8286 15.1896 58.9698 14.963 59.0619 14.7146C59.154 14.4663 59.1949 14.2016 59.1803 13.9371C59.1948 13.6723 59.1525 13.4073 59.0566 13.1601C58.9607 12.9129 58.8132 12.6891 58.6238 12.5037C58.1998 12.1391 57.6502 11.9545 57.0924 11.9891H54.782V11.9882ZM142.105 21.4253H135.226V15.1992H141.824V16.5953H136.908V19.9658H142.106V21.4245L142.105 21.4253ZM130.167 21.4253H128.329L124.462 10.5712H126.288L129.235 19.5309H129.282L132.241 10.5712H134.038L130.169 21.4245L130.167 21.4253ZM123.27 21.4253H121.585V10.5712H123.27V21.4245V21.4253ZM101.181 21.4253H94.3064V15.1992H100.904V16.5953H95.988V19.9658H101.185V21.4245L101.181 21.4253ZM45.6798 21.4253H44V10.5712H48.0591C48.5334 10.5547 49.0049 10.6346 49.4475 10.8059C49.8901 10.9771 50.2944 11.2363 50.6345 11.5678C50.9655 11.9072 51.2248 12.3102 51.3958 12.7526C51.5668 13.1951 51.6456 13.6676 51.629 14.1418C51.645 14.6188 51.5642 15.0942 51.3905 15.5387C51.2168 15.9831 50.9537 16.3874 50.6186 16.7267C50.273 17.0597 49.8637 17.3195 49.4157 17.4907C48.9678 17.662 48.4906 17.741 48.0114 17.7233H45.6798V21.4326V21.4253ZM45.6798 11.9936V16.3036H47.614C48.2302 16.3397 48.8368 16.1383 49.3097 15.7409C49.5153 15.5313 49.6747 15.2809 49.7778 15.0058C49.8809 14.7307 49.9255 14.437 49.9085 14.1436C49.925 13.8518 49.8792 13.5598 49.7761 13.2864C49.6729 13.013 49.5147 12.7642 49.3097 12.5562C48.8404 12.1562 48.2343 11.9545 47.6193 11.9936H45.6798ZM142.105 12.0263H142.083V10.5721H142.105V12.0217V12.0263Z" fill="#F5F6FD"/>
</svg>
