<svg width="36" height="36" viewBox="0 0 36 36" fill="none" xmlns="http://www.w3.org/2000/svg">
<rect width="36" height="36" rx="18" fill="#FFE176"/>
<path fill-rule="evenodd" clip-rule="evenodd" d="M18 9.63379C17.7287 9.63379 17.4809 9.78296 17.3605 10.0188L17.359 10.0216L15.3281 13.9523C15.2233 14.155 15.0229 14.295 14.7915 14.3271L10.293 14.951L10.291 14.9513C10.0199 14.9881 9.79447 15.1722 9.71065 15.425C9.62683 15.6778 9.69943 15.9549 9.89753 16.1382L9.89878 16.1393L13.1388 19.1517C13.3103 19.3112 13.3887 19.5431 13.3479 19.7702L12.5783 24.0497L12.5779 24.0517C12.5304 24.3116 12.6392 24.5751 12.8586 24.7312C13.078 24.8873 13.3698 24.9088 13.611 24.7867L13.6137 24.7853L17.6727 22.7512C17.8781 22.6483 18.1221 22.6483 18.3274 22.7513L22.3864 24.7863L22.389 24.7876C22.6302 24.9097 22.922 24.8882 23.1414 24.7322C23.3608 24.5761 23.4696 24.3125 23.4221 24.0527L23.4217 24.0506L22.6521 19.7701C22.6113 19.5431 22.6897 19.3112 22.8612 19.1517L26.1012 16.1393L26.1025 16.1382C26.3006 15.9549 26.3732 15.6778 26.2894 15.425C26.2055 15.1722 25.9801 14.9881 25.709 14.9513L25.707 14.951L21.2085 14.3271C20.9771 14.295 20.7767 14.155 20.6719 13.9523L18.6395 10.0188C18.5191 9.78297 18.2713 9.63379 18 9.63379ZM16.0833 9.40275C16.4448 8.69663 17.1873 8.25 18 8.25C18.8127 8.25 19.5552 8.69659 19.9166 9.40265C19.9169 9.40319 19.9172 9.40374 19.9175 9.40429L21.7797 13.0085L25.9069 13.5809C25.9073 13.5809 25.9076 13.581 25.908 13.581C26.7203 13.6919 27.3959 14.2435 27.6471 15.0013C27.8983 15.7588 27.6811 16.5889 27.0881 17.1384C27.0881 17.1384 27.0881 17.1384 27.0881 17.1384C27.0877 17.1388 27.0872 17.1392 27.0868 17.1396L24.1225 19.8956L24.8264 23.8107C24.8265 23.8111 24.8265 23.8116 24.8266 23.812C24.9687 24.5908 24.6423 25.3803 23.9848 25.8481C23.3275 26.3157 22.4534 26.3805 21.7305 26.0151C21.73 26.0148 21.7295 26.0146 21.729 26.0143L17.9999 24.1447L14.271 26.0134C14.2704 26.0137 14.2698 26.014 14.2692 26.0143C13.5464 26.3795 12.6725 26.3148 12.0152 25.8471C11.3577 25.3794 11.0313 24.5898 11.1734 23.8109C11.1735 23.8105 11.1736 23.8102 11.1736 23.8098L11.8775 19.8956L8.91319 17.1396C8.91292 17.1393 8.91266 17.1391 8.91239 17.1388C8.31903 16.5893 8.10165 15.759 8.35287 15.0013C8.60409 14.2435 9.27969 13.6919 10.0921 13.581C10.0924 13.581 10.0927 13.5809 10.0931 13.5809L14.2203 13.0085L16.0833 9.40275Z" fill="#2061DF"/>
</svg>
