<svg width="40" height="40" viewBox="0 0 40 40" fill="none" xmlns="http://www.w3.org/2000/svg">
<rect width="40" height="40" rx="20" fill="#3973E4"/>
<path fill-rule="evenodd" clip-rule="evenodd" d="M27.0567 13.6277C26.3339 12.9053 24.7415 12.0744 22.8051 12.7932C22.1411 13.0396 21.6166 13.5471 21.243 14.0402C21.06 14.2817 20.9233 14.5064 20.8333 14.6691C20.7885 14.75 20.7559 14.8146 20.7353 14.8568C20.7251 14.8779 20.7179 14.8934 20.7137 14.9024L20.7099 14.9108L20.7103 14.9098C20.5931 15.1796 20.3301 15.3572 20.036 15.3652C19.742 15.3732 19.4701 15.2106 19.3381 14.948C19.3381 14.9479 19.3376 14.947 19.3375 14.9469L19.3315 14.9351C19.3257 14.9241 19.3162 14.9061 19.3032 14.8822C19.2772 14.8343 19.237 14.7628 19.1838 14.6742C19.077 14.4962 18.9202 14.2543 18.7221 13.9998C18.3077 13.4673 17.7907 12.982 17.2491 12.8018C15.9572 12.3719 15.0031 12.5179 14.3282 12.7819C13.7463 13.0096 13.3599 13.3219 13.07 13.5563C13.0084 13.6061 12.9512 13.6523 12.8975 13.6935C11.877 14.4746 11.1965 16.1646 11.6648 18.499C11.8862 19.603 12.5053 20.7262 13.3651 21.812C14.2208 22.8927 15.2827 23.8958 16.3308 24.7582C17.3768 25.6188 18.3943 26.3272 19.1512 26.8207C19.5082 27.0535 19.806 27.2376 20.0199 27.3666C20.2324 27.2412 20.5276 27.0625 20.8811 26.8362C21.6351 26.3537 22.6492 25.6585 23.6923 24.8071C25.8218 23.069 27.9009 20.8165 28.3644 18.4994C28.8139 16.2526 27.9108 14.4815 27.0567 13.6277ZM20.0153 28.2426C19.6443 28.9031 19.6441 28.903 19.6439 28.9029L19.6417 28.9017L19.6362 28.8986L19.6166 28.8874C19.5997 28.8778 19.5754 28.8639 19.5441 28.8457C19.4815 28.8094 19.3909 28.7563 19.2759 28.6872C19.046 28.5491 18.7185 28.3473 18.3232 28.0896C17.5336 27.5748 16.4681 26.8334 15.3676 25.9279C14.2692 25.0242 13.1211 23.9449 12.1767 22.7522C11.2362 21.5645 10.4649 20.2232 10.1787 18.7968C9.6339 16.0806 10.3633 13.725 11.9761 12.4907C12.0037 12.4695 12.0399 12.4399 12.0843 12.4034C12.359 12.1783 12.949 11.6946 13.7759 11.3711C14.7671 10.9833 16.0861 10.8182 17.7278 11.3644C18.7019 11.6885 19.4482 12.4656 19.9183 13.0695C19.9457 13.1046 19.9723 13.1395 19.9983 13.1741C20.0103 13.158 20.0225 13.1418 20.0348 13.1255C20.4979 12.5144 21.2364 11.7594 22.2774 11.373C24.907 10.3969 27.1013 11.5299 28.1284 12.5565C29.2951 13.7227 30.4115 15.9927 29.8506 18.7964C29.2746 21.6755 26.8076 24.2203 24.6509 25.9805C23.5509 26.8783 22.4867 27.6075 21.6984 28.1121C21.3036 28.3647 20.9766 28.5619 20.747 28.6967C20.6322 28.7641 20.5416 28.8159 20.479 28.8513C20.4477 28.869 20.4234 28.8826 20.4065 28.892L20.3868 28.9028L20.3813 28.9059L20.3796 28.9068C20.3794 28.9069 20.3787 28.9073 20.0153 28.2426ZM20.0153 28.2426L20.3787 28.9073C20.1495 29.0325 19.8716 29.0307 19.6439 28.9029L20.0153 28.2426Z" fill="white"/>
</svg>
