<svg width="40" height="40" viewBox="0 0 40 40" fill="none" xmlns="http://www.w3.org/2000/svg">
<rect width="39.9991" height="40" rx="19.9995" fill="#FFBD43"/>
<path fill-rule="evenodd" clip-rule="evenodd" d="M25.4821 9.00946C25.7142 9.04715 25.914 9.19411 26.0192 9.40445L27.2107 11.7884L29.5946 12.9799C29.805 13.085 29.9519 13.2849 29.9896 13.517C30.0273 13.7491 29.9511 13.9852 29.7848 14.1514L25.8821 18.0542C25.7449 18.1913 25.5589 18.2684 25.3649 18.2684H21.7651L19.5694 20.4641C19.2838 20.7498 18.8206 20.7498 18.535 20.4641C18.2493 20.1785 18.2493 19.7153 18.535 19.4297L20.7307 17.234V13.6342C20.7307 13.4402 20.8077 13.2542 20.9449 13.117L24.8477 9.21425C25.0139 9.04798 25.25 8.97178 25.4821 9.00946ZM22.1936 16.8055H25.0619L28.0327 13.8347L26.3384 12.9879C26.1968 12.9171 26.082 12.8023 26.0112 12.6606L25.1644 10.9664L22.1936 13.9372V16.8055ZM19.2652 11.6136C19.2899 12.0169 18.9831 12.3638 18.5799 12.3885C14.5208 12.6377 11.3813 16.045 11.4645 20.1109C11.5478 24.1767 14.8241 27.4527 18.89 27.5355C22.9558 27.6183 26.3628 24.4784 26.6115 20.4193C26.6362 20.0161 26.9831 19.7092 27.3863 19.7339C27.7896 19.7586 28.0964 20.1055 28.0717 20.5087C27.775 25.3511 23.7106 29.0969 18.8602 28.9981C14.0098 28.8993 10.1012 24.9912 10.0019 20.1408C9.90263 15.2904 13.648 11.2256 18.4903 10.9284C18.8935 10.9036 19.2404 11.2104 19.2652 11.6136ZM19.2622 15.3013C19.3061 15.7029 19.0161 16.064 18.6145 16.1078C16.5934 16.3285 15.0857 18.0724 15.1594 20.1041C15.2331 22.1359 16.8632 23.766 18.8949 23.8397C20.9267 23.9134 22.6706 22.4057 22.8913 20.3846C22.9351 19.983 23.2962 19.693 23.6978 19.7369C24.0994 19.7807 24.3894 20.1418 24.3455 20.5434C24.0416 23.3268 21.64 25.4031 18.8419 25.3016C16.0438 25.2001 13.799 22.9553 13.6975 20.1572C13.596 17.3591 15.6723 14.9575 18.4557 14.6535C18.8573 14.6097 19.2184 14.8997 19.2622 15.3013Z" fill="#F5F6FD"/>
</svg>
