<svg width="40" height="40" viewBox="0 0 40 40" fill="none" xmlns="http://www.w3.org/2000/svg">
<rect width="40" height="40" rx="20" fill="#A678D4"/>
<path fill-rule="evenodd" clip-rule="evenodd" d="M20 11.5385C15.3264 11.5385 11.5385 15.3264 11.5385 20C11.5385 24.6736 15.3264 28.4615 20 28.4615C24.6736 28.4615 28.4615 24.6736 28.4615 20C28.4615 19.5752 28.8059 19.2308 29.2308 19.2308C29.6556 19.2308 30 19.5752 30 20C30 25.5233 25.5233 30 20 30C14.4767 30 10 25.5233 10 20C10 14.4767 14.4767 10 20 10C21.6166 10 23.1375 10.393 24.4851 11.0707C24.8646 11.2616 25.0176 11.724 24.8267 12.1035C24.6358 12.4831 24.1734 12.636 23.7939 12.4452C22.6492 11.8695 21.3639 11.5385 20 11.5385ZM28.2988 14.7833C28.5992 15.0837 28.5992 15.5707 28.2988 15.8711L20.5491 23.6209C20.4048 23.7651 20.2091 23.8462 20.0051 23.8462C19.801 23.8461 19.6054 23.7651 19.4611 23.6208L15.5873 19.7459C15.2869 19.4455 15.287 18.9584 15.5874 18.6581C15.8879 18.3577 16.3749 18.3578 16.6753 18.6582L20.0052 21.989L27.2109 14.7833C27.5113 14.4828 27.9984 14.4828 28.2988 14.7833Z" fill="#F5F6FD"/>
</svg>
