<svg width="40" height="40" viewBox="0 0 40 40" fill="none" xmlns="http://www.w3.org/2000/svg">
<rect width="40" height="40" rx="20" fill="#92D382"/>
<path fill-rule="evenodd" clip-rule="evenodd" d="M21.7103 14.088C19.6131 12.0095 16.2129 12.0095 14.1157 14.088C12.0186 16.1666 12.0186 19.5365 14.1157 21.6151C16.1791 23.6601 19.5038 23.6931 21.6078 21.714C21.6268 21.6904 21.6474 21.6677 21.6697 21.6459C21.6927 21.6234 21.7169 21.6026 21.7419 21.5835C23.8074 19.5026 23.7969 16.1561 21.7103 14.088ZM23.2781 22.1732C25.4903 19.4821 25.3314 15.5144 22.8013 13.0068C20.1016 10.3311 15.7245 10.3311 13.0248 13.0068C10.3251 15.6825 10.3251 20.0206 13.0248 22.6963C15.5253 25.1746 19.4648 25.3575 22.1776 23.2449L27.6794 28.7724C27.9786 29.073 28.467 29.0763 28.7703 28.7797C29.0736 28.4832 29.077 27.9991 28.7777 27.6985L23.2781 22.1732Z" fill="#F5F6FD"/>
</svg>
