<svg width="40" height="40" viewBox="0 0 40 40" fill="none" xmlns="http://www.w3.org/2000/svg">
<rect width="40" height="40" rx="20" fill="#29A1D4"/>
<path fill-rule="evenodd" clip-rule="evenodd" d="M21.5149 11.8715C20.5441 11.4674 19.4559 11.4674 18.4851 11.8715L13.3421 14.0108C12.8593 14.2112 12.5429 14.6895 12.5429 15.2204V18.9501C12.5429 23.2656 15.7108 27.3443 20 28.4103C24.2892 27.3443 27.4571 23.2656 27.4571 18.9501V15.2204C27.4571 14.6902 27.1419 14.2124 26.6579 14.0108C26.6578 14.0108 26.658 14.0108 26.6579 14.0108L21.5149 11.8715ZM22.0994 10.4199C20.7539 9.86002 19.2461 9.86002 17.9006 10.4199C17.9006 10.4199 17.9007 10.4199 17.9006 10.4199L12.7584 12.559C12.7583 12.559 12.7584 12.559 12.7584 12.559C11.6944 13.0007 11 14.0533 11 15.2204V18.9501C11 24.0742 14.7695 28.8245 19.8308 29.9809C19.9422 30.0064 20.0578 30.0064 20.1692 29.9809C25.2305 28.8245 29 24.0742 29 18.9501V15.2204C29 14.0526 28.3053 13.0018 27.2424 12.5593L22.0994 10.4199C22.0994 10.4199 22.0993 10.4199 22.0994 10.4199ZM23.8883 17.2904C24.1896 17.5966 24.1896 18.0931 23.8883 18.3994L20.0312 22.3204C19.7299 22.6267 19.2415 22.6267 18.9402 22.3204L16.6259 19.9678C16.3247 19.6616 16.3247 19.165 16.6259 18.8588C16.9272 18.5525 17.4156 18.5525 17.7169 18.8588L19.4857 20.6569L22.7974 17.2904C23.0986 16.9841 23.5871 16.9841 23.8883 17.2904Z" fill="#F5F6FD"/>
</svg>
