<svg width="40" height="40" viewBox="0 0 40 40" fill="none" xmlns="http://www.w3.org/2000/svg">
<rect width="40" height="40" rx="20" fill="#FFB45C"/>
<path d="M19.0097 11.4348C18.0437 11.4788 17.0707 11.6878 16.1297 12.0958C12.6127 13.6218 10.7157 17.3158 11.3057 20.9348M26.6747 23.3798C27.1187 22.5208 27.4247 21.5738 27.5417 20.5558C27.9797 16.7468 25.7277 13.2578 22.2987 11.9588M16.4347 10.0078L19.2757 10.9748L17.8937 13.3708M29.1997 21.8658L26.9417 23.8428L25.5577 21.4478M12.5477 26.9908L11.9647 24.0468L14.7307 24.0458M12.4967 24.0478C13.0187 24.8628 13.6857 25.6008 14.5087 26.2108C17.5887 28.4938 21.7367 28.2898 24.5757 25.9688" stroke="#F5F6FD" stroke-width="1.5" stroke-linecap="round" stroke-linejoin="round"/>
</svg>
